<svg id="visual" viewBox="0 0 1021 544" width="1021" height="544" xmlns="http://www.w3.org/2000/svg" xmlns:xlink="http://www.w3.org/1999/xlink" version="1.1"><rect width="1021" height="544" fill="#001829"></rect><g><g transform="translate(259 461)"><path d="M0 -90L78 -45L78 45L0 90L-78 45L-78 -45Z" stroke="#297EA6" fill="none" stroke-width="2"></path></g><g transform="translate(57 416)"><path d="M0 -71L61.5 -35.5L61.5 35.5L0 71L-61.5 35.5L-61.5 -35.5Z" stroke="#297EA6" fill="none" stroke-width="2"></path></g><g transform="translate(924 475)"><path d="M0 -88L76.2 -44L76.2 44L0 88L-76.2 44L-76.2 -44Z" stroke="#297EA6" fill="none" stroke-width="2"></path></g><g transform="translate(151 104)"><path d="M0 -89L77.1 -44.5L77.1 44.5L0 89L-77.1 44.5L-77.1 -44.5Z" stroke="#297EA6" fill="none" stroke-width="2"></path></g><g transform="translate(702 129)"><path d="M0 -52L45 -26L45 26L0 52L-45 26L-45 -26Z" stroke="#297EA6" fill="none" stroke-width="2"></path></g><g transform="translate(590 466)"><path d="M0 -62L53.7 -31L53.7 31L0 62L-53.7 31L-53.7 -31Z" stroke="#297EA6" fill="none" stroke-width="2"></path></g><g transform="translate(959 39)"><path d="M0 -78L67.5 -39L67.5 39L0 78L-67.5 39L-67.5 -39Z" stroke="#297EA6" fill="none" stroke-width="2"></path></g><g transform="translate(521 174)"><path d="M0 -46L39.8 -23L39.8 23L0 46L-39.8 23L-39.8 -23Z" stroke="#297EA6" fill="none" stroke-width="2"></path></g><g transform="translate(875 222)"><path d="M0 -43L37.2 -21.5L37.2 21.5L0 43L-37.2 21.5L-37.2 -21.5Z" stroke="#297EA6" fill="none" stroke-width="2"></path></g><g transform="translate(376 282)"><path d="M0 -36L31.2 -18L31.2 18L0 36L-31.2 18L-31.2 -18Z" stroke="#297EA6" fill="none" stroke-width="2"></path></g><g transform="translate(22 239)"><path d="M0 -62L53.7 -31L53.7 31L0 62L-53.7 31L-53.7 -31Z" stroke="#297EA6" fill="none" stroke-width="2"></path></g><g transform="translate(441 10)"><path d="M0 -35L30.3 -17.5L30.3 17.5L0 35L-30.3 17.5L-30.3 -17.5Z" stroke="#297EA6" fill="none" stroke-width="2"></path></g><g transform="translate(738 345)"><path d="M0 -86L74.5 -43L74.5 43L0 86L-74.5 43L-74.5 -43Z" stroke="#297EA6" fill="none" stroke-width="2"></path></g></g></svg>